G04 DipTrace 3.2.0.1*
G04 BottomSilk.gbr*
%MOMM*%
G04 #@! TF.FileFunction,Legend,Bot*
G04 #@! TF.Part,Single*
%ADD18C,0.3*%
%ADD45C,0.15686*%
%ADD46C,0.07843*%
%ADD47C,0.11765*%
%ADD48C,0.23529*%
%FSLAX35Y35*%
G04*
G71*
G90*
G75*
G01*
G04 BotSilk*
%LPD*%
X1480093Y2532573D2*
D18*
X2718213D1*
Y167447D1*
X1480093D1*
Y2532573D1*
X365820Y1123218D2*
D46*
X370705Y1118389D1*
X373120Y1111089D1*
Y1101374D1*
X370705Y1094074D1*
X365820Y1089189D1*
X360991D1*
X356105Y1091660D1*
X353691Y1094074D1*
X351276Y1098903D1*
X346391Y1113503D1*
X343976Y1118389D1*
X341505Y1120803D1*
X336676Y1123218D1*
X329376D1*
X324547Y1118389D1*
X322076Y1111089D1*
Y1101374D1*
X324547Y1094074D1*
X329376Y1089189D1*
X373120Y1155919D2*
X322076D1*
X373120Y1138904D2*
Y1172934D1*
Y1188620D2*
X322076D1*
Y1210520D1*
X324547Y1217820D1*
X326961Y1220234D1*
X331791Y1222649D1*
X339091D1*
X343976Y1220234D1*
X346391Y1217820D1*
X348805Y1210520D1*
X351276Y1217820D1*
X353691Y1220234D1*
X358520Y1222649D1*
X363405D1*
X368235Y1220234D1*
X370705Y1217820D1*
X373120Y1210520D1*
Y1188620D1*
X348805D2*
Y1210520D1*
X373120Y1238335D2*
X348805Y1257764D1*
X322076D1*
X373120Y1277194D2*
X348805Y1257764D1*
X456762Y650961D2*
D47*
X460384Y658205D1*
X467712Y665533D1*
X474956Y669155D1*
X489528D1*
X496856Y665533D1*
X504100Y658205D1*
X507806Y650961D1*
X511428Y640011D1*
Y621733D1*
X507806Y610867D1*
X504100Y603539D1*
X496856Y596295D1*
X489528Y592589D1*
X474956D1*
X467712Y596295D1*
X460384Y603539D1*
X456762Y610867D1*
Y621733D1*
X474956D1*
X382189Y669155D2*
Y592589D1*
X433233Y669155D1*
Y592589D1*
X358660Y669155D2*
Y592589D1*
X333138D1*
X322188Y596295D1*
X314860Y603539D1*
X311238Y610867D1*
X307616Y621733D1*
Y640011D1*
X311238Y650961D1*
X314860Y658205D1*
X322188Y665533D1*
X333138Y669155D1*
X358660D1*
X456762Y1936701D2*
X460384Y1943945D1*
X467712Y1951273D1*
X474956Y1954895D1*
X489528D1*
X496856Y1951273D1*
X504100Y1943945D1*
X507806Y1936701D1*
X511428Y1925751D1*
Y1907473D1*
X507806Y1896607D1*
X504100Y1889279D1*
X496856Y1882035D1*
X489528Y1878329D1*
X474956D1*
X467712Y1882035D1*
X460384Y1889279D1*
X456762Y1896607D1*
Y1907473D1*
X474956D1*
X382189Y1954895D2*
Y1878329D1*
X433233Y1954895D1*
Y1878329D1*
X358660Y1954895D2*
Y1878329D1*
X333138D1*
X322188Y1882035D1*
X314860Y1889279D1*
X311238Y1896607D1*
X307616Y1907473D1*
Y1925751D1*
X311238Y1936701D1*
X314860Y1943945D1*
X322188Y1951273D1*
X333138Y1954895D1*
X358660D1*
X476257Y939002D2*
X447114Y862436D1*
X417970Y939002D1*
X394440D2*
X390818Y935380D1*
X387112Y939002D1*
X390818Y942708D1*
X394440Y939002D1*
X390818Y913480D2*
Y862436D1*
X363583Y913480D2*
Y862436D1*
Y898908D2*
X352633Y909858D1*
X345305Y913480D1*
X334439D1*
X327111Y909858D1*
X323489Y898908D1*
Y862436D1*
X537278Y2208868D2*
X508134Y2132303D1*
X478990Y2208868D1*
X437267Y2183346D2*
X444511Y2179724D1*
X451839Y2172396D1*
X455461Y2161446D1*
Y2154203D1*
X451839Y2143253D1*
X444511Y2136009D1*
X437267Y2132303D1*
X426317D1*
X418989Y2136009D1*
X411745Y2143253D1*
X408039Y2154203D1*
Y2161446D1*
X411745Y2172396D1*
X418989Y2179724D1*
X426317Y2183346D1*
X437267D1*
X384509D2*
Y2146874D1*
X380888Y2136009D1*
X373559Y2132303D1*
X362609D1*
X355366Y2136009D1*
X344416Y2146874D1*
Y2183346D2*
Y2132303D1*
X309936Y2208868D2*
Y2146874D1*
X306314Y2136009D1*
X298986Y2132303D1*
X291742D1*
X320886Y2183346D2*
X295364D1*
X382370Y1542599D2*
D46*
Y1564499D1*
X384785Y1571743D1*
X387255Y1574213D1*
X392085Y1576628D1*
X399385D1*
X404214Y1574213D1*
X406685Y1571743D1*
X409099Y1564499D1*
Y1542599D1*
X358056D1*
X396970Y1628758D2*
X401799Y1626344D1*
X406685Y1621458D1*
X409099Y1616629D1*
Y1606914D1*
X406685Y1602029D1*
X401799Y1597200D1*
X396970Y1594729D1*
X389670Y1592314D1*
X377485D1*
X370241Y1594729D1*
X365355Y1597200D1*
X360526Y1602029D1*
X358055Y1606914D1*
Y1616629D1*
X360526Y1621458D1*
X365355Y1626344D1*
X370241Y1628758D1*
X377485D1*
Y1616629D1*
X409099Y1659044D2*
X406685Y1654159D1*
X401799Y1649330D1*
X396970Y1646859D1*
X389670Y1644444D1*
X377485D1*
X370241Y1646859D1*
X365355Y1649330D1*
X360526Y1654159D1*
X358055Y1659044D1*
Y1668759D1*
X360526Y1673588D1*
X365355Y1678474D1*
X370241Y1680888D1*
X377485Y1683303D1*
X389670D1*
X396970Y1680888D1*
X401799Y1678474D1*
X406685Y1673588D1*
X409099Y1668759D1*
Y1659044D1*
Y1713589D2*
X406685Y1708704D1*
X401799Y1703874D1*
X396970Y1701404D1*
X389670Y1698989D1*
X377485D1*
X370241Y1701404D1*
X365355Y1703875D1*
X360526Y1708704D1*
X358055Y1713589D1*
Y1723304D1*
X360526Y1728133D1*
X365355Y1733018D1*
X370241Y1735433D1*
X377485Y1737848D1*
X389670Y1737847D1*
X396970Y1735433D1*
X401799Y1733018D1*
X406685Y1728133D1*
X409099Y1723304D1*
Y1713589D1*
Y1753534D2*
X358055D1*
Y1770548D1*
X360526Y1777848D1*
X365355Y1782734D1*
X370241Y1785148D1*
X377485Y1787563D1*
X389670D1*
X396970Y1785148D1*
X401799Y1782734D1*
X406685Y1777848D1*
X409099Y1770548D1*
Y1753534D1*
X413936Y1431075D2*
D47*
X461273D1*
Y1354509D1*
X413936D1*
X461273Y1394603D2*
X432129D1*
X339362Y1431075D2*
Y1354509D1*
X390406Y1431075D1*
Y1354509D1*
X960342Y778349D2*
X883776D1*
Y803871D1*
X887482Y814821D1*
X894726Y822149D1*
X902054Y825771D1*
X912920Y829393D1*
X931198D1*
X942148Y825771D1*
X949392Y822149D1*
X956720Y814821D1*
X960342Y803871D1*
Y778349D1*
X945686Y852922D2*
X949392Y860250D1*
X960258Y871200D1*
X883776D1*
X922017Y894730D2*
Y936845D1*
X960342Y960375D2*
X883776Y989518D1*
X960342Y1018662D1*
Y1042192D2*
X883776D1*
X960342Y1116765D2*
X883776D1*
X960342Y1065721D1*
X883776D1*
X942064Y1144000D2*
X945686D1*
X953014Y1147622D1*
X956636Y1151244D1*
X960258Y1158572D1*
Y1173144D1*
X956636Y1180388D1*
X953014Y1184010D1*
X945686Y1187716D1*
X938442D1*
X931114Y1184010D1*
X920248Y1176766D1*
X883776Y1140294D1*
Y1191338D1*
X674622Y746602D2*
X598056D1*
Y772124D1*
X601762Y783074D1*
X609006Y790402D1*
X616334Y794024D1*
X627200Y797646D1*
X645478D1*
X656428Y794024D1*
X663672Y790402D1*
X671000Y783074D1*
X674622Y772124D1*
Y746602D1*
X674538Y843076D2*
X670916Y832126D1*
X659966Y824798D1*
X641772Y821176D1*
X630822D1*
X612628Y824798D1*
X601678Y832126D1*
X598056Y843076D1*
Y850319D1*
X601678Y861269D1*
X612628Y868513D1*
X630822Y872219D1*
X641772D1*
X659966Y868513D1*
X670916Y861269D1*
X674538Y850319D1*
Y843076D1*
X659966Y868513D2*
X612628Y824798D1*
X636297Y895749D2*
Y937864D1*
X674622Y961394D2*
X598056Y990538D1*
X674622Y1019681D1*
Y1043211D2*
X598056D1*
X674622Y1117784D2*
X598056D1*
X674622Y1066740D1*
X598056D1*
X656344Y1145019D2*
X659966D1*
X667294Y1148641D1*
X670916Y1152263D1*
X674538Y1159591D1*
Y1174163D1*
X670916Y1181407D1*
X667294Y1185029D1*
X659966Y1188735D1*
X652722D1*
X645394Y1185029D1*
X634528Y1177785D1*
X598056Y1141313D1*
Y1192357D1*
X944469Y1841862D2*
X867903D1*
Y1867384D1*
X871609Y1878334D1*
X878853Y1885662D1*
X886181Y1889284D1*
X897047Y1892906D1*
X915325D1*
X926275Y1889284D1*
X933519Y1885662D1*
X940847Y1878334D1*
X944469Y1867384D1*
Y1841862D1*
X929812Y1916436D2*
X933519Y1923764D1*
X944384Y1934714D1*
X867903D1*
X906144Y1958243D2*
Y2000358D1*
X926275Y2078554D2*
X933518Y2074932D1*
X940847Y2067604D1*
X944468Y2060360D1*
Y2045788D1*
X940847Y2038460D1*
X933519Y2031216D1*
X926275Y2027510D1*
X915325Y2023888D1*
X897047D1*
X886181Y2027510D1*
X878853Y2031216D1*
X871609Y2038460D1*
X867903Y2045788D1*
Y2060360D1*
X871609Y2067604D1*
X878853Y2074932D1*
X886181Y2078554D1*
X897047D1*
Y2060360D1*
X944468Y2153127D2*
X867903D1*
X944468Y2102083D1*
X867903D1*
X944469Y2176656D2*
X867903D1*
Y2202178D1*
X871609Y2213128D1*
X878853Y2220456D1*
X886181Y2224078D1*
X897047Y2227700D1*
X915325D1*
X926275Y2224078D1*
X933519Y2220456D1*
X940847Y2213128D1*
X944469Y2202178D1*
Y2176656D1*
X674622Y1841862D2*
X598056D1*
Y1867384D1*
X601762Y1878334D1*
X609006Y1885662D1*
X616334Y1889284D1*
X627200Y1892906D1*
X645478D1*
X656428Y1889284D1*
X663672Y1885662D1*
X671000Y1878334D1*
X674622Y1867384D1*
Y1841862D1*
X674538Y1938336D2*
X670916Y1927386D1*
X659966Y1920058D1*
X641772Y1916436D1*
X630822D1*
X612628Y1920058D1*
X601678Y1927386D1*
X598056Y1938336D1*
Y1945579D1*
X601678Y1956529D1*
X612628Y1963773D1*
X630822Y1967479D1*
X641772D1*
X659966Y1963773D1*
X670916Y1956529D1*
X674538Y1945579D1*
Y1938336D1*
X659966Y1963773D2*
X612628Y1920058D1*
X636297Y1991009D2*
Y2033124D1*
X656428Y2111319D2*
X663672Y2107697D1*
X671000Y2100369D1*
X674622Y2093125D1*
Y2078554D1*
X671000Y2071226D1*
X663672Y2063982D1*
X656428Y2060276D1*
X645478Y2056654D1*
X627200D1*
X616334Y2060276D1*
X609006Y2063982D1*
X601762Y2071226D1*
X598056Y2078554D1*
Y2093126D1*
X601762Y2100369D1*
X609006Y2107697D1*
X616334Y2111319D1*
X627200D1*
Y2093126D1*
X674622Y2185892D2*
X598056Y2185893D1*
X674622Y2134849D1*
X598056D1*
X674622Y2209422D2*
X598056D1*
Y2234944D1*
X601762Y2245894D1*
X609006Y2253222D1*
X616334Y2256844D1*
X627200Y2260466D1*
X645478D1*
X656428Y2256844D1*
X663672Y2253222D1*
X671000Y2245894D1*
X674622Y2234944D1*
Y2209422D1*
X2490084Y944538D2*
D48*
X2336952D1*
Y1031969D1*
X2490084Y1130072D2*
X2336952D1*
X2490084Y1079028D2*
Y1181116D1*
X2453696Y1337506D2*
X2468183Y1330262D1*
X2482840Y1315606D1*
X2490083Y1301119D1*
Y1271975D1*
X2482840Y1257319D1*
X2468184Y1242831D1*
X2453696Y1235419D1*
X2431796Y1228175D1*
X2395240D1*
X2373508Y1235419D1*
X2358852Y1242831D1*
X2344364Y1257319D1*
X2336952Y1271975D1*
Y1301119D1*
X2344364Y1315606D1*
X2358852Y1330262D1*
X2373508Y1337506D1*
X2489915Y1399221D2*
Y1479240D1*
X2431627Y1435609D1*
Y1457509D1*
X2424383Y1471997D1*
X2417140Y1479240D1*
X2395240Y1486653D1*
X2380752D1*
X2358852Y1479241D1*
X2344196Y1464753D1*
X2336952Y1442853D1*
Y1420953D1*
X2344196Y1399221D1*
X2351608Y1391977D1*
X2366096Y1384565D1*
X2489915Y1548368D2*
Y1628387D1*
X2431627Y1584755D1*
Y1606655D1*
X2424383Y1621143D1*
X2417140Y1628387D1*
X2395240Y1635799D1*
X2380752D1*
X2358852Y1628387D1*
X2344196Y1613899D1*
X2336952Y1591999D1*
Y1570099D1*
X2344196Y1548368D1*
X2351608Y1541124D1*
X2366096Y1533712D1*
X2489915Y1719246D2*
X2482671Y1697514D1*
X2468183Y1690102D1*
X2453527D1*
X2439040Y1697514D1*
X2431627Y1712002D1*
X2424383Y1741146D1*
X2417140Y1763046D1*
X2402483Y1777533D1*
X2387996Y1784777D1*
X2366096D1*
X2351608Y1777533D1*
X2344196Y1770290D1*
X2336952Y1748390D1*
Y1719246D1*
X2344196Y1697514D1*
X2351608Y1690102D1*
X2366096Y1682858D1*
X2387996D1*
X2402483Y1690102D1*
X2417140Y1704758D1*
X2424383Y1726490D1*
X2431627Y1755633D1*
X2439040Y1770290D1*
X2453527Y1777533D1*
X2468183D1*
X2482671Y1770289D1*
X2489915Y1748390D1*
Y1719246D1*
Y1868224D2*
X2482671Y1846492D1*
X2468183Y1839080D1*
X2453527D1*
X2439040Y1846492D1*
X2431627Y1860980D1*
X2424383Y1890124D1*
X2417140Y1912024D1*
X2402484Y1926511D1*
X2387996Y1933755D1*
X2366096D1*
X2351608Y1926511D1*
X2344196Y1919267D1*
X2336952Y1897368D1*
Y1868224D1*
X2344196Y1846492D1*
X2351608Y1839080D1*
X2366096Y1831836D1*
X2387996D1*
X2402483Y1839080D1*
X2417140Y1853736D1*
X2424383Y1875467D1*
X2431627Y1904611D1*
X2439040Y1919267D1*
X2453527Y1926511D1*
X2468184D1*
X2482671Y1919267D1*
X2489915Y1897367D1*
Y1868224D1*
X2156293Y335856D2*
D45*
X2054205D1*
Y379656D1*
X2059146Y394256D1*
X2063976Y399086D1*
X2073634Y403915D1*
X2088234D1*
X2098005Y399086D1*
X2102834Y394256D1*
X2107663Y379656D1*
X2112605Y394256D1*
X2117434Y399086D1*
X2127093Y403915D1*
X2136863D1*
X2146522Y399086D1*
X2151463Y394256D1*
X2156293Y379656D1*
Y335856D1*
X2107663D2*
Y379656D1*
X2156293Y435287D2*
X2083405D1*
X2068805Y440117D1*
X2059146Y449887D1*
X2054205Y464487D1*
Y474146D1*
X2059146Y488746D1*
X2068805Y498517D1*
X2083405Y503346D1*
X2156293D1*
X2132034Y607606D2*
X2141693Y602777D1*
X2151463Y593006D1*
X2156293Y583348D1*
Y563918D1*
X2151463Y554148D1*
X2141693Y544489D1*
X2132034Y539548D1*
X2117434Y534718D1*
X2093063D1*
X2078576Y539548D1*
X2068805Y544489D1*
X2059146Y554148D1*
X2054205Y563918D1*
Y583348D1*
X2059146Y593006D1*
X2068805Y602777D1*
X2078576Y607606D1*
X2156293Y638979D2*
X2054205D1*
X2156293Y707037D2*
X2088234Y638979D1*
X2112605Y663237D2*
X2054205Y707037D1*
X2156293Y900284D2*
Y837167D1*
X2054205D1*
Y900284D1*
X2107663Y837167D2*
Y876025D1*
X2156293Y999715D2*
X2054205D1*
X2156293Y931656D1*
X2054205D1*
X2156293Y1094204D2*
Y1031087D1*
X2054205D1*
Y1094204D1*
X2107663Y1031087D2*
Y1069946D1*
Y1125577D2*
Y1169265D1*
X2112605Y1183865D1*
X2117434Y1188806D1*
X2127093Y1193635D1*
X2136863D1*
X2146522Y1188806D1*
X2151463Y1183865D1*
X2156293Y1169265D1*
Y1125577D1*
X2054205D1*
X2107663Y1159606D2*
X2054205Y1193635D1*
X2132034Y1297896D2*
X2141693Y1293066D1*
X2151463Y1283296D1*
X2156293Y1273637D1*
Y1254208D1*
X2151463Y1244437D1*
X2141693Y1234779D1*
X2132034Y1229837D1*
X2117434Y1225008D1*
X2093063D1*
X2078576Y1229837D1*
X2068805Y1234779D1*
X2059146Y1244437D1*
X2054205Y1254208D1*
Y1273637D1*
X2059146Y1283296D1*
X2068805Y1293066D1*
X2078576Y1297896D1*
X2093063D1*
Y1273637D1*
X2156293Y1329268D2*
X2107663Y1368127D1*
X2054205D1*
X2156293Y1406985D2*
X2107663Y1368127D1*
X2156293Y1537115D2*
X2054205D1*
X2156293Y1605173D2*
X2054205D1*
X2107663Y1537115D2*
Y1605173D1*
X2054205Y1714375D2*
X2156293Y1675404D1*
X2054205Y1636546D1*
X2088234Y1651146D2*
Y1699775D1*
X2107663Y1745748D2*
Y1789435D1*
X2112605Y1804035D1*
X2117434Y1808977D1*
X2127093Y1813806D1*
X2136863D1*
X2146522Y1808977D1*
X2151463Y1804035D1*
X2156293Y1789435D1*
Y1745748D1*
X2054205D1*
X2107663Y1779777D2*
X2054205Y1813806D1*
X2156293Y1845179D2*
X2054205Y1884037D1*
X2156293Y1922895D1*
Y2017385D2*
Y1954268D1*
X2054205D1*
Y2017385D1*
X2107663Y1954268D2*
Y1993126D1*
X2141693Y2116816D2*
X2151463Y2107157D1*
X2156293Y2092557D1*
Y2073128D1*
X2151463Y2058528D1*
X2141693Y2048757D1*
X2132034D1*
X2122263Y2053699D1*
X2117434Y2058528D1*
X2112605Y2068187D1*
X2102834Y2097387D1*
X2098005Y2107157D1*
X2093063Y2111987D1*
X2083405Y2116816D1*
X2068805D1*
X2059146Y2107157D1*
X2054205Y2092557D1*
Y2073128D1*
X2059146Y2058528D1*
X2068805Y2048757D1*
X2156292Y2182218D2*
X2054205D1*
X2156292Y2148188D2*
Y2216247D1*
Y2310736D2*
Y2247619D1*
X2054205D1*
Y2310736D1*
X2107663Y2247619D2*
Y2286478D1*
Y2342109D2*
Y2385796D1*
X2112605Y2400396D1*
X2117434Y2405338D1*
X2127093Y2410167D1*
X2136863D1*
X2146522Y2405338D1*
X2151463Y2400396D1*
X2156293Y2385796D1*
X2156292Y2342109D1*
X2054205D1*
X2107663Y2376138D2*
X2054205Y2410167D1*
X1807079Y1081903D2*
X1704992Y1120762D1*
X1807079Y1159620D1*
X1743850Y1190993D2*
Y1249280D1*
X1753621D1*
X1763392Y1244451D1*
X1768221Y1239622D1*
X1773050Y1229851D1*
Y1215251D1*
X1768221Y1205593D1*
X1758450Y1195822D1*
X1743850Y1190993D1*
X1734192D1*
X1719592Y1195822D1*
X1709933Y1205593D1*
X1704992Y1215251D1*
Y1229851D1*
X1709933Y1239622D1*
X1719592Y1249280D1*
X1773050Y1280653D2*
X1704992D1*
X1743850D2*
X1758450Y1285594D1*
X1768221Y1295253D1*
X1773050Y1305024D1*
Y1319624D1*
X1758450Y1404455D2*
X1768221Y1399625D1*
X1773050Y1385025D1*
Y1370425D1*
X1768221Y1355825D1*
X1758450Y1350996D1*
X1748792Y1355825D1*
X1743850Y1365596D1*
X1739021Y1389855D1*
X1734192Y1399625D1*
X1724421Y1404455D1*
X1719592D1*
X1709933Y1399625D1*
X1704992Y1385025D1*
Y1370425D1*
X1709933Y1355825D1*
X1719592Y1350996D1*
X1807079Y1435827D2*
X1802250Y1440656D1*
X1807079Y1445598D1*
X1812021Y1440656D1*
X1807079Y1435827D1*
X1773050Y1440656D2*
X1704992D1*
X1773050Y1501229D2*
X1768221Y1491570D1*
X1758450Y1481800D1*
X1743850Y1476970D1*
X1734192D1*
X1719592Y1481800D1*
X1709933Y1491570D1*
X1704992Y1501229D1*
Y1515829D1*
X1709933Y1525600D1*
X1719592Y1535258D1*
X1734192Y1540200D1*
X1743850D1*
X1758450Y1535258D1*
X1768221Y1525600D1*
X1773050Y1515829D1*
Y1501229D1*
Y1571572D2*
X1704992D1*
X1753621D2*
X1768221Y1586172D1*
X1773050Y1595943D1*
Y1610431D1*
X1768221Y1620201D1*
X1753621Y1625031D1*
X1704992D1*
X1787538Y1755160D2*
X1792479Y1764931D1*
X1806967Y1779531D1*
X1704992D1*
M02*
