G04 DipTrace 3.2.0.1*
G04 Bottom.gbr*
%MOMM*%
G04 #@! TF.FileFunction,Copper,L2,Bot*
G04 #@! TF.Part,Single*
%AMOUTLINE0*
4,1,8,
0.625,-0.8,
0.625,0.8,
0.235,0.8,
0.235,-0.36,
-0.365,-0.36,
-0.365,0.18,
-0.625,0.18,
-0.625,-0.8,
0.625,-0.8,
0*%
%AMOUTLINE3*
4,1,8,
-0.625,0.8,
-0.625,-0.8,
-0.235,-0.8,
-0.235,0.36,
0.365,0.36,
0.365,-0.18,
0.625,-0.18,
0.625,0.8,
-0.625,0.8,
0*%
G04 #@! TA.AperFunction,Conductor*
%ADD14C,0.33*%
G04 #@! TA.AperFunction,CopperBalancing*
%ADD17C,0.635*%
G04 #@! TA.AperFunction,ComponentPad*
%ADD24R,1.5X1.5*%
%ADD25C,1.5*%
G04 #@! TA.AperFunction,ViaPad*
%ADD26C,1.016*%
%ADD50OUTLINE0*%
%ADD53OUTLINE3*%
%FSLAX35Y35*%
G04*
G71*
G90*
G75*
G01*
G04 Bottom*
%LPD*%
X194353Y1897613D2*
D14*
X467290Y1624677D1*
Y1358580D1*
X464200Y1361670D1*
Y1008733D1*
Y707140D1*
X384833Y627773D1*
X194513D1*
X194353Y627613D1*
X353087Y1008733D2*
X464200D1*
X528687Y1787160D2*
X304807D1*
X194353Y1897613D1*
X528687Y1422073D2*
X464200Y1361670D1*
X987027Y1262073D2*
Y1454180D1*
X940400Y1500807D1*
Y1580533D1*
X987027Y1627160D1*
X807027Y1422073D2*
Y1310960D1*
X813260Y1304727D1*
Y1469213D1*
X797540Y1484933D1*
X708687Y1262073D2*
Y1323733D1*
X807027Y1422073D1*
X702300Y1564300D2*
Y1620773D1*
X708687Y1627160D1*
Y1688820D1*
X807027Y1787160D1*
D26*
X353087Y1008733D3*
X797540Y1484933D3*
X702300Y1564300D3*
X940400Y1500807D3*
X88100Y2555083D2*
D17*
X2811917D1*
X88100Y2491917D2*
X2811917D1*
X88100Y2428750D2*
X2811917D1*
X88100Y2365583D2*
X2811917D1*
X88100Y2302417D2*
X2811917D1*
X342989Y2239250D2*
X2811917D1*
X342989Y2176083D2*
X2811917D1*
X342989Y2112917D2*
X2811917D1*
X342989Y2049750D2*
X2811917D1*
X88100Y1986583D2*
X2811917D1*
X88100Y1923417D2*
X2811917D1*
X88100Y1860250D2*
X759677D1*
X854317D2*
X2811917D1*
X88100Y1797083D2*
X596800D1*
X1059942D2*
X2811917D1*
X310633Y1733917D2*
X510576D1*
X1060672D2*
X2811917D1*
X340346Y1670750D2*
X510029D1*
X1064955D2*
X2811917D1*
X338341Y1607583D2*
X512946D1*
X1074890D2*
X2811917D1*
X302703Y1544417D2*
X579573D1*
X1056479D2*
X2811917D1*
X309539Y1481250D2*
X612021D1*
X1072703D2*
X2811917D1*
X340073Y1418083D2*
X543206D1*
X1077169D2*
X2811917D1*
X338705Y1354917D2*
X510029D1*
X1077169D2*
X2811917D1*
X303979Y1291750D2*
X510029D1*
X1077169D2*
X2811917D1*
X308445Y1228583D2*
X518961D1*
X1070151D2*
X2811917D1*
X339799Y1165417D2*
X2811917D1*
X339070Y1102250D2*
X2811917D1*
X305255Y1039083D2*
X2811917D1*
X307260Y975917D2*
X2811917D1*
X339526Y912750D2*
X2811917D1*
X339343Y849583D2*
X2811917D1*
X306440Y786417D2*
X2811917D1*
X88100Y723250D2*
X2811917D1*
X88100Y660083D2*
X2811917D1*
X88100Y596917D2*
X2811917D1*
X88100Y533750D2*
X2811917D1*
X88100Y470583D2*
X2811917D1*
X88100Y407417D2*
X2811917D1*
X88100Y344250D2*
X2811917D1*
X88100Y281083D2*
X2811917D1*
X88100Y217917D2*
X2811917D1*
X88100Y154750D2*
X2811917D1*
X88100Y91583D2*
X2811917D1*
X81686Y2293903D2*
X336643D1*
Y2009323D1*
X81708D1*
X81750Y1730612D1*
X93739Y1744228D1*
X110717Y1758728D1*
X129755Y1770395D1*
X150383Y1778939D1*
X172094Y1784152D1*
X194353Y1785903D1*
X216612Y1784152D1*
X238323Y1778939D1*
X258952Y1770395D1*
X277989Y1758728D1*
X294968Y1744228D1*
X309468Y1727249D1*
X321135Y1708212D1*
X329679Y1687583D1*
X334892Y1665872D1*
X336643Y1643613D1*
X334892Y1621354D1*
X329679Y1599643D1*
X321135Y1579015D1*
X309468Y1559977D1*
X294968Y1542999D1*
X277989Y1528498D1*
X258516Y1516631D1*
X277989Y1504728D1*
X294968Y1490228D1*
X309468Y1473249D1*
X321135Y1454212D1*
X329679Y1433583D1*
X334892Y1411872D1*
X336643Y1389613D1*
X334892Y1367354D1*
X329679Y1345643D1*
X321135Y1325015D1*
X309468Y1305977D1*
X294968Y1288999D1*
X277989Y1274498D1*
X258516Y1262631D1*
X277989Y1250728D1*
X294968Y1236228D1*
X309468Y1219249D1*
X321135Y1200212D1*
X329679Y1179583D1*
X334892Y1157872D1*
X336643Y1135613D1*
X334892Y1113354D1*
X329679Y1091643D1*
X321135Y1071015D1*
X309468Y1051977D1*
X294968Y1034999D1*
X277989Y1020498D1*
X258516Y1008631D1*
X277989Y996728D1*
X294968Y982228D1*
X309468Y965249D1*
X321135Y946212D1*
X329679Y925583D1*
X334892Y903872D1*
X336643Y881613D1*
X334892Y859354D1*
X329679Y837643D1*
X321135Y817015D1*
X309468Y797977D1*
X294968Y780999D1*
X277989Y766498D1*
X258952Y754832D1*
X238323Y746288D1*
X216612Y741075D1*
X194353Y739323D1*
X172094Y741075D1*
X150383Y746288D1*
X129755Y754832D1*
X110717Y766498D1*
X93739Y780999D1*
X81751Y794790D1*
X81750Y81784D1*
X2818190Y81750D1*
X2818250Y2618216D1*
X81810Y2618250D1*
X81750Y2293893D1*
X937170Y1194783D2*
X807027D1*
X796500Y1195611D1*
X786233Y1198076D1*
X776477Y1202117D1*
X771850Y1204710D1*
X767935Y1202825D1*
X757937Y1194286D1*
X746727Y1187416D1*
X734579Y1182384D1*
X721794Y1179315D1*
X708687Y1178283D1*
X695579Y1179315D1*
X682794Y1182384D1*
X670647Y1187416D1*
X658810Y1194779D1*
X578407Y1194990D1*
X567978Y1196642D1*
X557936Y1199905D1*
X548528Y1204699D1*
X539985Y1210905D1*
X532519Y1218372D1*
X526312Y1226914D1*
X521518Y1236322D1*
X518256Y1246365D1*
X516604Y1256794D1*
X516396Y1360073D1*
X517225Y1370600D1*
X519690Y1380867D1*
X523731Y1390622D1*
X529248Y1399626D1*
X536105Y1407655D1*
X544134Y1414512D1*
X553138Y1420029D1*
X562893Y1424070D1*
X573160Y1426535D1*
X588887Y1427364D1*
X602598D1*
X604256Y1437782D1*
X607519Y1447824D1*
X612312Y1457232D1*
X618519Y1465775D1*
X626001Y1473254D1*
X618798Y1480798D1*
X606763Y1494888D1*
X597081Y1510688D1*
X589990Y1527808D1*
X585664Y1545827D1*
X584385Y1559848D1*
X573160Y1560698D1*
X562893Y1563163D1*
X553137Y1567204D1*
X544134Y1572721D1*
X536105Y1579579D1*
X529248Y1587608D1*
X523731Y1596611D1*
X519690Y1606366D1*
X517225Y1616633D1*
X516397Y1627181D1*
X516604Y1730440D1*
X518256Y1740869D1*
X521518Y1750911D1*
X526312Y1760319D1*
X532519Y1768862D1*
X539985Y1776328D1*
X548528Y1782534D1*
X557936Y1787328D1*
X567978Y1790591D1*
X578407Y1792243D1*
X602598Y1792450D1*
X604256Y1802869D1*
X607519Y1812911D1*
X612312Y1822319D1*
X618519Y1830862D1*
X625985Y1838328D1*
X634528Y1844534D1*
X643936Y1849328D1*
X653978Y1852591D1*
X664407Y1854243D1*
X713966D1*
X724395Y1852591D1*
X734438Y1849328D1*
X743863Y1844523D1*
X747778Y1846409D1*
X757776Y1854948D1*
X768987Y1861818D1*
X781134Y1866849D1*
X793919Y1869919D1*
X807027Y1870950D1*
X820134Y1869919D1*
X832919Y1866849D1*
X845067Y1861818D1*
X856903Y1854455D1*
X987027Y1854450D1*
X997553Y1853622D1*
X1007820Y1851157D1*
X1017576Y1847116D1*
X1026579Y1841599D1*
X1034608Y1834741D1*
X1041465Y1826712D1*
X1046983Y1817709D1*
X1051023Y1807954D1*
X1053488Y1797686D1*
X1054316Y1787139D1*
X1054814Y1676411D1*
X1061684Y1665200D1*
X1066716Y1653053D1*
X1069785Y1640268D1*
X1070817Y1627160D1*
X1069785Y1614052D1*
X1066716Y1601267D1*
X1061684Y1589120D1*
X1054814Y1577909D1*
X1046275Y1567911D1*
X1041088Y1562509D1*
X1049501Y1545998D1*
X1055227Y1528374D1*
X1058126Y1510072D1*
X1058469Y1497960D1*
X1064439Y1486245D1*
X1068502Y1473740D1*
X1070558Y1460754D1*
X1070817Y1290847D1*
X1070558Y1255499D1*
X1068502Y1242513D1*
X1064439Y1230008D1*
X1058469Y1218293D1*
X1050741Y1207656D1*
X1041444Y1198359D1*
X1030807Y1190631D1*
X1019092Y1184661D1*
X1006587Y1180598D1*
X993601Y1178542D1*
X980453D1*
X967466Y1180598D1*
X954962Y1184661D1*
X943246Y1190631D1*
X937150Y1194779D1*
X1054316Y1756681D2*
Y1695639D1*
D24*
X194353Y2151613D3*
D25*
Y1897613D3*
Y1643613D3*
Y1389613D3*
Y1135613D3*
Y881613D3*
Y627613D3*
D50*
X924527Y1342073D3*
D53*
X869527D3*
X591187D3*
D50*
X646187D3*
X924527Y1707160D3*
D53*
X869527D3*
X591187D3*
D50*
X646187D3*
M02*
