G04 DipTrace 3.2.0.1*
G04 TopSilk.gbr*
%MOMM*%
G04 #@! TF.FileFunction,Legend,Top*
G04 #@! TF.Part,Single*
%ADD10C,0.25*%
%ADD14C,0.33*%
%ADD18C,0.3*%
%ADD20O,0.40001X0.39966*%
%ADD45C,0.15686*%
%ADD46C,0.07843*%
%ADD47C,0.11765*%
%ADD49C,0.03922*%
%FSLAX35Y35*%
G04*
G71*
G90*
G75*
G01*
G04 TopSilk*
%LPD*%
D20*
X714743Y1353169D3*
X438513Y1832690D2*
D10*
Y1962590D1*
X751377Y713200D2*
X621477D1*
X859577Y1097913D2*
X989477D1*
X67353Y500613D2*
X321353D1*
X67353Y2278613D2*
Y500613D1*
Y2278613D2*
X321353D1*
Y500613D1*
X1093073Y2153070D2*
Y2023170D1*
X146733Y389673D2*
D18*
X1035640D1*
Y56333D1*
X146733D1*
Y389673D1*
X488010Y1016670D2*
D14*
Y1191277D1*
X503883Y1365883D2*
Y1540490D1*
X694363Y810317D2*
Y984923D1*
X932463Y810317D2*
Y984923D1*
X972147Y2072247D2*
X797540D1*
X718173Y1897640D2*
X543567D1*
X2069231Y1962550D2*
D45*
X2001172D1*
X2049801D2*
X2064401Y1947950D1*
X2069231Y1938179D1*
Y1923691D1*
X2064401Y1913921D1*
X2049801Y1909091D1*
X2001172Y1909092D1*
X2049801Y1909091D2*
X2064401Y1894492D1*
X2069231Y1884721D1*
Y1870233D1*
X2064401Y1860462D1*
X2049801Y1855521D1*
X2001172D1*
X2069231Y1824148D2*
X2020601D1*
X2006114Y1819319D1*
X2001172Y1809548D1*
Y1794948D1*
X2006114Y1785290D1*
X2020601Y1770690D1*
X2069231D2*
X2001172D1*
X2054631Y1739317D2*
Y1695630D1*
X2059572Y1681030D1*
X2064401Y1676088D1*
X2074060Y1671259D1*
X2083831D1*
X2093489Y1676088D1*
X2098431Y1681030D1*
X2103260Y1695630D1*
Y1739317D1*
X2001172D1*
X2054631Y1705288D2*
X2001172Y1671259D1*
X2069231Y1581599D2*
X2001172D1*
X2054631D2*
X2064401Y1591257D1*
X2069231Y1601028D1*
Y1615516D1*
X2064401Y1625286D1*
X2054631Y1634945D1*
X2040031Y1639886D1*
X2030372D1*
X2015772Y1634945D1*
X2006114Y1625286D1*
X2001172Y1615516D1*
Y1601028D1*
X2006114Y1591257D1*
X2015772Y1581599D1*
X2103260Y1535626D2*
X2020601D1*
X2006114Y1530797D1*
X2001172Y1521026D1*
Y1511368D1*
X2069231Y1550226D2*
Y1516197D1*
Y1421707D2*
X2001172D1*
X2054631D2*
X2064401Y1431366D1*
X2069231Y1441137D1*
Y1455624D1*
X2064401Y1465395D1*
X2054631Y1475054D1*
X2040031Y1479995D1*
X2030372D1*
X2015772Y1475054D1*
X2006114Y1465395D1*
X2001172Y1455624D1*
Y1441137D1*
X2006114Y1431366D1*
X2015772Y1421707D1*
X2088660Y1233290D2*
X2098318Y1238119D1*
X2103148Y1252719D1*
Y1262378D1*
X2098318Y1276978D1*
X2083718Y1286748D1*
X2059460Y1291578D1*
X2035201D1*
X2015772Y1286749D1*
X2006001Y1276978D1*
X2001172Y1262378D1*
Y1257549D1*
X2006001Y1243061D1*
X2015772Y1233290D1*
X2030372Y1228461D1*
X2035201D1*
X2049801Y1233290D1*
X2059460Y1243061D1*
X2064289Y1257548D1*
Y1262378D1*
X2059460Y1276978D1*
X2049801Y1286749D1*
X2035201Y1291578D1*
X2103148Y1167888D2*
X2098318Y1182488D1*
X2083718Y1192259D1*
X2059460Y1197088D1*
X2044860D1*
X2020601Y1192259D1*
X2006001Y1182488D1*
X2001172Y1167888D1*
Y1158230D1*
X2006001Y1143630D1*
X2020601Y1133971D1*
X2044860Y1129030D1*
X2059460D1*
X2083718Y1133971D1*
X2098318Y1143630D1*
X2103148Y1158230D1*
Y1167888D1*
X2083718Y1133971D2*
X2020601Y1192259D1*
X2103260Y1097657D2*
X2001172D1*
Y1053857D1*
X2006114Y1039257D1*
X2010943Y1034428D1*
X2020601Y1029599D1*
X2035201D1*
X2044972Y1034428D1*
X2049801Y1039257D1*
X2054631Y1053857D1*
X2059572Y1039257D1*
X2064401Y1034428D1*
X2074060Y1029599D1*
X2083831D1*
X2093489Y1034428D1*
X2098431Y1039257D1*
X2103260Y1053857D1*
Y1097657D1*
X2054631D2*
Y1053857D1*
X2083718Y998226D2*
X2088660Y988455D1*
X2103148Y973855D1*
X2001172D1*
X2103148Y913283D2*
X2098318Y927883D1*
X2083718Y937654D1*
X2059460Y942483D1*
X2044860D1*
X2020601Y937654D1*
X2006001Y927883D1*
X2001172Y913283D1*
Y903624D1*
X2006001Y889024D1*
X2020601Y879366D1*
X2044860Y874424D1*
X2059460D1*
X2083718Y879366D1*
X2098318Y889024D1*
X2103148Y903624D1*
Y913283D1*
X2083718Y879366D2*
X2020601Y937654D1*
X2001172Y794423D2*
X2103148D1*
X2035201Y843052D1*
Y770164D1*
X2079001Y665904D2*
X2088660Y670733D1*
X2098431Y680504D1*
X2103260Y690162D1*
Y709592D1*
X2098431Y719362D1*
X2088660Y729021D1*
X2079001Y733962D1*
X2064401Y738792D1*
X2040031D1*
X2025543Y733962D1*
X2015772Y729021D1*
X2006114Y719362D1*
X2001172Y709592D1*
Y690162D1*
X2006114Y680504D1*
X2015772Y670733D1*
X2025543Y665904D1*
X352697Y258987D2*
D47*
Y182421D1*
X396413D1*
X445465Y258987D2*
Y182421D1*
X419943Y258987D2*
X470986D1*
X549182Y240793D2*
X545560Y248037D1*
X538232Y255365D1*
X530988Y258987D1*
X516416D1*
X509088Y255365D1*
X501844Y248037D1*
X498138Y240793D1*
X494516Y229843D1*
Y211565D1*
X498138Y200699D1*
X501844Y193371D1*
X509088Y186127D1*
X516416Y182421D1*
X530988D1*
X538232Y186127D1*
X545560Y193371D1*
X549182Y200699D1*
X580039Y258903D2*
X620049D1*
X598233Y229759D1*
X609183D1*
X616427Y226137D1*
X620049Y222515D1*
X623755Y211565D1*
Y204321D1*
X620049Y193371D1*
X612805Y186043D1*
X601855Y182421D1*
X590905D1*
X580039Y186043D1*
X576417Y189749D1*
X572711Y196993D1*
X654612Y258903D2*
X694622D1*
X672806Y229759D1*
X683756D1*
X691000Y226137D1*
X694622Y222515D1*
X698328Y211565D1*
Y204321D1*
X694622Y193371D1*
X687378Y186043D1*
X676428Y182421D1*
X665478D1*
X654612Y186043D1*
X650990Y189749D1*
X647284Y196993D1*
X740051Y258903D2*
X729186Y255281D1*
X725480Y248037D1*
Y240709D1*
X729186Y233465D1*
X736430Y229759D1*
X751001Y226137D1*
X761951Y222515D1*
X769195Y215187D1*
X772817Y207943D1*
Y196993D1*
X769195Y189749D1*
X765573Y186043D1*
X754623Y182421D1*
X740051D1*
X729186Y186043D1*
X725480Y189749D1*
X721858Y196993D1*
Y207943D1*
X725480Y215187D1*
X732808Y222515D1*
X743673Y226137D1*
X758245Y229759D1*
X765573Y233465D1*
X769195Y240709D1*
Y248037D1*
X765573Y255281D1*
X754623Y258903D1*
X740051D1*
X814540D2*
X803675Y255281D1*
X799969Y248037D1*
Y240709D1*
X803675Y233465D1*
X810919Y229759D1*
X825490Y226137D1*
X836440Y222515D1*
X843684Y215187D1*
X847306Y207943D1*
Y196993D1*
X843684Y189749D1*
X840062Y186043D1*
X829112Y182421D1*
X814540D1*
X803675Y186043D1*
X799969Y189749D1*
X796347Y196993D1*
Y207943D1*
X799969Y215187D1*
X807297Y222515D1*
X818162Y226137D1*
X832734Y229759D1*
X840062Y233465D1*
X843684Y240709D1*
Y248037D1*
X840062Y255281D1*
X829112Y258903D1*
X814540D1*
X368487Y1378895D2*
D46*
X366016Y1383781D1*
X358772Y1391081D1*
X409760D1*
X358772Y1421367D2*
X361187Y1414067D1*
X368487Y1409182D1*
X380616Y1406767D1*
X387916D1*
X400046Y1409182D1*
X407346Y1414067D1*
X409760Y1421367D1*
Y1426196D1*
X407345Y1433496D1*
X400045Y1438325D1*
X387916Y1440796D1*
X380616D1*
X368487Y1438325D1*
X361187Y1433496D1*
X358772Y1426196D1*
Y1421367D1*
X368487Y1438325D2*
X400046Y1409182D1*
X358716Y1456482D2*
X409760D1*
X358716Y1490512D2*
X392745Y1456482D1*
X380560Y1468612D2*
X409760Y1490512D1*
X786004Y2230083D2*
D47*
Y2306564D1*
X749532Y2255604D1*
X804198D1*
X842299Y2230083D2*
X878771Y2306564D1*
X827728D1*
X902301Y2281126D2*
Y2244654D1*
X905923Y2233789D1*
X913251Y2230083D1*
X924201D1*
X931445Y2233789D1*
X942395Y2244654D1*
Y2281126D2*
Y2230083D1*
X1013346Y2306648D2*
X965924D1*
Y2230083D1*
Y2270176D2*
X995068D1*
X417745Y906933D2*
D46*
X422630Y909403D1*
X429930Y916647D1*
Y865659D1*
X460217Y916647D2*
X452917Y914233D1*
X448031Y906933D1*
X445617Y894803D1*
Y887503D1*
X448031Y875374D1*
X452917Y868074D1*
X460217Y865659D1*
X465046D1*
X472346Y868074D1*
X477175Y875374D1*
X479646Y887503D1*
Y894803D1*
X477175Y906933D1*
X472346Y914233D1*
X465046Y916647D1*
X460217D1*
X477175Y906933D2*
X448031Y875374D1*
X495332Y916703D2*
Y865659D1*
X529361Y916703D2*
X495332Y882674D1*
X507461Y894859D2*
X529361Y865659D1*
X410455Y2034192D2*
D47*
Y2110674D1*
X373983Y2059714D1*
X428649D1*
X455800Y2041520D2*
X452178Y2037814D1*
X455800Y2034192D1*
X459506Y2037814D1*
X455800Y2041520D1*
X497608Y2034192D2*
X534079Y2110674D1*
X483036D1*
X557609Y2085236D2*
Y2048764D1*
X561231Y2037898D1*
X568559Y2034192D1*
X579509D1*
X586753Y2037898D1*
X597703Y2048764D1*
Y2085236D2*
Y2034192D1*
X668654Y2110758D2*
X621232D1*
Y2034192D1*
Y2074286D2*
X650376D1*
X603626Y660086D2*
X610954Y663792D1*
X621904Y674658D1*
Y598176D1*
X645433Y649220D2*
Y612748D1*
X649055Y601883D1*
X656383Y598176D1*
X667333D1*
X674577Y601883D1*
X685527Y612748D1*
Y649220D2*
Y598176D1*
X756478Y674742D2*
X709056D1*
Y598176D1*
Y638270D2*
X738200D1*
X1101481Y1049138D2*
X1105102D1*
X1112431Y1045516D1*
X1116052Y1041895D1*
X1119674Y1034566D1*
Y1019995D1*
X1116052Y1012751D1*
X1112430Y1009129D1*
X1105102Y1005423D1*
X1097858D1*
X1090530Y1009129D1*
X1079665Y1016373D1*
X1043193Y1052845D1*
Y1001801D1*
X1050521Y974650D2*
X1046815Y978272D1*
X1043193Y974650D1*
X1046815Y970943D1*
X1050521Y974650D1*
X1101480Y943708D2*
X1105102D1*
X1112430Y940086D1*
X1116052Y936464D1*
X1119674Y929136D1*
Y914564D1*
X1116052Y907320D1*
X1112430Y903698D1*
X1105102Y899992D1*
X1097858D1*
X1090530Y903698D1*
X1079665Y910942D1*
X1043193Y947414D1*
Y896370D1*
X1094237Y872841D2*
X1057765D1*
X1046899Y869219D1*
X1043193Y861891D1*
Y850941D1*
X1046899Y843697D1*
X1057765Y832747D1*
X1094237D2*
X1043193D1*
X1119759Y761796D2*
Y809218D1*
X1043193D1*
X1083287D2*
Y780074D1*
X722435Y1493341D2*
D49*
Y1467819D1*
X737007D1*
X753357Y1493341D2*
Y1467819D1*
X744850Y1493341D2*
X761865D1*
X787930Y1487277D2*
X786722Y1489691D1*
X784280Y1492134D1*
X781865Y1493341D1*
X777008D1*
X774565Y1492134D1*
X772150Y1489691D1*
X770915Y1487277D1*
X769708Y1483627D1*
Y1477534D1*
X770915Y1473912D1*
X772150Y1471469D1*
X774565Y1469055D1*
X777008Y1467819D1*
X781865D1*
X784280Y1469055D1*
X786722Y1471469D1*
X787930Y1473912D1*
X798215Y1493313D2*
X811552D1*
X804280Y1483599D1*
X807930D1*
X810345Y1482391D1*
X811552Y1481184D1*
X812787Y1477534D1*
Y1475119D1*
X811552Y1471469D1*
X809137Y1469027D1*
X805487Y1467819D1*
X801837D1*
X798215Y1469027D1*
X797008Y1470262D1*
X795773Y1472677D1*
X823073Y1493313D2*
X836410D1*
X829138Y1483599D1*
X832788D1*
X835202Y1482391D1*
X836410Y1481184D1*
X837645Y1477534D1*
Y1475119D1*
X836410Y1471469D1*
X833995Y1469027D1*
X830345Y1467819D1*
X826695D1*
X823073Y1469027D1*
X821866Y1470262D1*
X820630Y1472677D1*
X851553Y1493313D2*
X847931Y1492106D1*
X846696Y1489691D1*
Y1487249D1*
X847931Y1484834D1*
X850346Y1483599D1*
X855203Y1482391D1*
X858853Y1481184D1*
X861267Y1478741D1*
X862475Y1476327D1*
Y1472677D1*
X861267Y1470262D1*
X860060Y1469027D1*
X856410Y1467819D1*
X851553D1*
X847931Y1469027D1*
X846696Y1470262D1*
X845488Y1472677D1*
Y1476327D1*
X846696Y1478741D1*
X849138Y1481184D1*
X852760Y1482391D1*
X857617Y1483599D1*
X860060Y1484834D1*
X861267Y1487249D1*
Y1489691D1*
X860060Y1492106D1*
X856410Y1493313D1*
X851553D1*
X876383D2*
X872761Y1492106D1*
X871525Y1489691D1*
Y1487249D1*
X872761Y1484834D1*
X875175Y1483599D1*
X880033Y1482391D1*
X883683Y1481184D1*
X886097Y1478741D1*
X887304Y1476327D1*
Y1472677D1*
X886097Y1470262D1*
X884890Y1469027D1*
X881240Y1467819D1*
X876383D1*
X872761Y1469027D1*
X871525Y1470262D1*
X870318Y1472677D1*
Y1476327D1*
X871525Y1478741D1*
X873968Y1481184D1*
X877590Y1482391D1*
X882447Y1483599D1*
X884890Y1484834D1*
X886097Y1487249D1*
Y1489691D1*
X884890Y1492106D1*
X881240Y1493313D1*
X876383D1*
M02*
