G04 DipTrace 3.2.0.1*
G04 Bottom.gbr*
%MOMM*%
G04 #@! TF.FileFunction,Copper,L2,Bot*
G04 #@! TF.Part,Single*
%AMOUTLINE12*
4,1,8,
-0.8,-0.625,
0.8,-0.625,
0.8,-0.235,
-0.36,-0.235,
-0.36,0.365,
0.18,0.365,
0.18,0.625,
-0.8,0.625,
-0.8,-0.625,
0*%
%AMOUTLINE15*
4,1,8,
0.8,0.625,
-0.8,0.625,
-0.8,0.235,
0.36,0.235,
0.36,-0.365,
-0.18,-0.365,
-0.18,-0.625,
0.8,-0.625,
0.8,0.625,
0*%
G04 #@! TA.AperFunction,Conductor*
%ADD15C,0.33*%
%ADD17C,0.6*%
G04 #@! TA.AperFunction,CopperBalancing*
%ADD18C,0.635*%
G04 #@! TA.AperFunction,ComponentPad*
%ADD22C,1.6*%
%ADD23R,1.6X1.6*%
%ADD24R,1.5X1.5*%
%ADD25C,1.5*%
G04 #@! TA.AperFunction,ViaPad*
%ADD29C,1.016*%
%ADD65OUTLINE12*%
%ADD68OUTLINE15*%
%FSLAX35Y35*%
G04*
G71*
G90*
G75*
G01*
G04 Bottom*
%LPD*%
X1859440Y1148487D2*
D15*
X2113440D1*
X954660Y259580D2*
X1065773D1*
X176867Y894487D2*
Y926260D1*
X780053D1*
X875293Y1021500D1*
Y1148487D1*
X176867Y926260D2*
X319753D1*
X1065773Y259580D2*
Y354820D1*
X1859440Y1148487D1*
X3319787Y370693D2*
X2891233D1*
X2113440Y1148487D1*
X875293D2*
X1859440D1*
X1985793Y101840D2*
X2461633D1*
X2430247D1*
X3050933D1*
X3319787Y370693D1*
X1985793Y396053D2*
X2319767D1*
X2430247D1*
Y380180D1*
X2319767Y497680D2*
Y396053D1*
X2367440Y1148487D2*
X2891260Y624667D1*
X3319760D1*
X3319787Y624693D1*
X2590247Y560180D2*
X2527113D1*
X2367387Y719907D1*
X2256273D1*
X2590247Y281840D2*
Y275453D1*
X2732473D1*
Y417953D1*
X2590247Y560180D1*
X1700707Y672287D2*
D17*
Y576053D1*
Y275453D1*
X1707093Y281840D1*
X2145793D1*
Y576053D2*
D15*
X1700707D1*
D29*
X954660Y259580D3*
X2256273Y719907D3*
X1065773Y259580D3*
X1700707Y672287D3*
X2319767Y497680D3*
X325489Y1155083D2*
D18*
X467646D1*
X774929D2*
X2218922D1*
X2769929D2*
X3411930D1*
X325489Y1091917D2*
X467646D1*
X774929D2*
X2230498D1*
X2758354D2*
X3411930D1*
X325489Y1028750D2*
X467646D1*
X774929D2*
X2284183D1*
X2704669D2*
X3411930D1*
X88146Y965583D2*
X2425459D1*
X2675229D2*
X3411930D1*
X88146Y902417D2*
X2488623D1*
X2738393D2*
X3411930D1*
X88146Y839250D2*
X2551787D1*
X2801557D2*
X3411930D1*
X88146Y776083D2*
X1638050D1*
X1763406D2*
X2146097D1*
X2436062D2*
X2614951D1*
X2864721D2*
X3411930D1*
X88146Y712917D2*
X1583453D1*
X1817911D2*
X2132060D1*
X2499226D2*
X2678206D1*
X2927885D2*
X3166110D1*
X88146Y649750D2*
X1578440D1*
X2562390D2*
X2741370D1*
X88146Y586583D2*
X1597034D1*
X2688718D2*
X2804534D1*
X88146Y523417D2*
X1597034D1*
X2751883D2*
X3166110D1*
X88146Y460250D2*
X1597034D1*
X1804330D2*
X1912125D1*
X2811127D2*
X3411930D1*
X88146Y397083D2*
X1597034D1*
X1804330D2*
X1895628D1*
X2822612D2*
X3411930D1*
X88146Y333917D2*
X1597034D1*
X2822612D2*
X3411930D1*
X88146Y270750D2*
X1597216D1*
X2248758D2*
X2356643D1*
X2822521D2*
X3411930D1*
X88146Y207583D2*
X1624651D1*
X2219409D2*
X2366578D1*
X2787976D2*
X3411930D1*
X88146Y144417D2*
X1975289D1*
X2218315D2*
X2419808D1*
X2662742D2*
X3411930D1*
X768583Y1218212D2*
Y1001197D1*
X474003D1*
Y1218215D1*
X319232Y1218250D1*
X319157Y1006197D1*
X81722D1*
X81750Y81784D1*
X3418294Y81750D1*
X3418250Y477383D1*
X3172497Y477403D1*
Y540932D1*
X2884686Y541135D1*
X2871700Y543192D1*
X2859195Y547255D1*
X2847480Y553224D1*
X2836843Y560952D1*
X2716517Y680912D1*
X2389563Y1007866D1*
X2367440Y1006197D1*
X2345181Y1007948D1*
X2323470Y1013161D1*
X2302842Y1021705D1*
X2283804Y1033372D1*
X2266826Y1047872D1*
X2252325Y1064851D1*
X2240659Y1083888D1*
X2232114Y1104517D1*
X2226902Y1126228D1*
X2225150Y1148487D1*
X2226902Y1170746D1*
X2232114Y1192457D1*
X2240659Y1213085D1*
X2243538Y1218226D1*
X768581Y1218250D1*
X3195830Y771983D2*
X3418317D1*
X3418250Y1218216D1*
X2745534Y1218250D1*
X2752899Y1202939D1*
X2759799Y1181704D1*
X2763291Y1159651D1*
Y1137323D1*
X2759799Y1115270D1*
X2752899Y1094035D1*
X2742762Y1074140D1*
X2729638Y1056077D1*
X2713850Y1040289D1*
X2695786Y1027164D1*
X2675892Y1017028D1*
X2654657Y1010128D1*
X2632604Y1006635D1*
X2627938Y1006452D1*
X2925981Y708442D1*
X3172445Y708457D1*
X3172497Y771983D1*
X3195830D1*
X2154966Y659311D2*
X2147172Y674716D1*
X2141446Y692339D1*
X2138547Y710641D1*
Y729172D1*
X2141446Y747474D1*
X2147172Y765098D1*
X2155585Y781609D1*
X2166477Y796600D1*
X2179580Y809703D1*
X2194571Y820595D1*
X2211082Y829008D1*
X2228706Y834734D1*
X2247008Y837633D1*
X2265539D1*
X2283841Y834734D1*
X2301464Y829008D1*
X2317975Y820595D1*
X2332967Y809703D1*
X2339483Y803679D1*
X2373961Y803439D1*
X2386947Y801382D1*
X2399452Y797319D1*
X2411167Y791350D1*
X2421804Y783621D1*
X2542129Y663661D1*
X2561787Y644004D1*
X2596821Y643712D1*
X2609807Y641655D1*
X2622312Y637592D1*
X2634027Y631623D1*
X2644664Y623895D1*
X2764989Y503935D1*
X2796188Y472371D1*
X2803916Y461734D1*
X2809885Y450018D1*
X2813948Y437514D1*
X2816005Y424527D1*
X2816264Y275453D1*
X2815232Y262346D1*
X2812163Y249561D1*
X2807131Y237413D1*
X2800261Y226203D1*
X2791722Y216205D1*
X2781724Y207666D1*
X2770513Y200796D1*
X2758366Y195764D1*
X2745581Y192695D1*
X2732448Y191664D1*
X2657460Y191663D1*
X2657330Y151560D1*
X2655678Y141131D1*
X2652415Y131089D1*
X2647621Y121681D1*
X2641415Y113138D1*
X2633948Y105672D1*
X2625406Y99466D1*
X2615998Y94672D1*
X2605955Y91409D1*
X2595526Y89757D1*
X2492247Y89550D1*
X2481720Y90378D1*
X2471453Y92843D1*
X2461697Y96884D1*
X2452694Y102401D1*
X2444665Y109259D1*
X2437808Y117288D1*
X2432290Y126291D1*
X2428250Y136046D1*
X2425785Y146313D1*
X2424956Y162040D1*
Y175751D1*
X2414538Y177409D1*
X2404496Y180672D1*
X2395088Y185466D1*
X2386545Y191672D1*
X2379079Y199138D1*
X2372872Y207681D1*
X2368079Y217089D1*
X2364816Y227131D1*
X2363164Y237560D1*
Y287120D1*
X2364816Y297549D1*
X2368087Y307610D1*
X2360247Y312263D1*
X2238322Y311904D1*
X2241886Y297060D1*
X2243084Y281840D1*
X2241886Y266620D1*
X2238322Y251776D1*
X2232480Y237671D1*
X2224503Y224654D1*
X2213076Y211648D1*
X2212876Y151560D1*
X2211224Y141131D1*
X2207961Y131089D1*
X2203168Y121681D1*
X2196961Y113138D1*
X2189495Y105672D1*
X2180952Y99466D1*
X2171544Y94672D1*
X2161502Y91409D1*
X2151073Y89757D1*
X2047793Y89550D1*
X2037267Y90378D1*
X2027000Y92843D1*
X2017244Y96884D1*
X2008241Y102401D1*
X2000212Y109259D1*
X1993354Y117288D1*
X1987837Y126291D1*
X1983797Y136046D1*
X1981332Y146313D1*
X1980503Y162040D1*
Y175751D1*
X1970085Y177409D1*
X1960043Y180672D1*
X1955226Y182894D1*
X1935793Y184550D1*
X1735364D1*
X1723419Y180851D1*
X1708340Y178463D1*
X1693073D1*
X1677995Y180851D1*
X1663475Y185569D1*
X1649873Y192500D1*
X1637522Y201473D1*
X1626727Y212268D1*
X1617753Y224619D1*
X1610822Y238222D1*
X1606104Y252741D1*
X1603716Y267820D1*
X1603416Y392120D1*
Y605311D1*
X1595488Y618675D1*
X1588396Y635795D1*
X1584071Y653813D1*
X1582617Y672287D1*
X1584071Y690760D1*
X1588396Y708778D1*
X1595488Y725898D1*
X1605170Y741698D1*
X1617204Y755789D1*
X1631295Y767823D1*
X1647095Y777506D1*
X1664215Y784597D1*
X1682233Y788923D1*
X1700707Y790377D1*
X1719180Y788923D1*
X1737198Y784597D1*
X1754318Y777506D1*
X1770118Y767823D1*
X1784209Y755789D1*
X1796243Y741698D1*
X1805926Y725898D1*
X1813017Y708778D1*
X1817343Y690760D1*
X1818797Y672287D1*
X1818054Y659820D1*
X2152367Y659585D1*
X2154945Y659280D1*
X1918503Y445910D2*
Y492212D1*
X1798072Y492263D1*
X1797997Y379087D1*
X1903695Y379130D1*
X1902003Y396053D1*
X1903035Y409161D1*
X1906104Y421946D1*
X1911136Y434093D1*
X1918499Y445930D1*
X1918504Y479164D1*
D22*
X875293Y1148487D3*
D23*
X621293D3*
D22*
X3319787Y370693D3*
D23*
Y624693D3*
D24*
X176867Y1148487D3*
D25*
Y894487D3*
D24*
X1859440Y1148487D3*
D25*
X2113440D3*
X2367440D3*
X2621440D3*
D65*
X2065793Y164340D3*
D68*
Y219340D3*
X2510247Y497680D3*
D65*
Y442680D3*
Y164340D3*
D68*
Y219340D3*
X2065793Y513553D3*
D65*
Y458553D3*
M02*
