G04 DipTrace 3.2.0.1*
G04 Top.gbr*
%MOMM*%
G04 #@! TF.FileFunction,Copper,L1,Top*
G04 #@! TF.Part,Single*
%AMOUTLINE0*
4,1,5,
-1.15,1.15,
1.15,1.15,
1.15,-1.15,
0.025,-1.15,
-1.15,0.025,
-1.15,1.15,
0*%
%AMOUTLINE3*
4,1,5,
1.15,1.15,
1.15,-1.15,
-1.15,-1.15,
-1.15,-0.025,
0.025,1.15,
1.15,1.15,
0*%
%AMOUTLINE6*
4,1,5,
1.15,-1.15,
-1.15,-1.15,
-1.15,1.15,
-0.025,1.15,
1.15,-0.025,
1.15,-1.15,
0*%
%AMOUTLINE9*
4,1,5,
-1.15,-1.15,
-1.15,1.15,
1.15,1.15,
1.15,0.025,
-0.025,-1.15,
-1.15,-1.15,
0*%
G04 #@! TA.AperFunction,Conductor*
%ADD13C,2.0*%
%ADD14C,1.3*%
%ADD15C,0.33*%
%ADD16C,1.0*%
%ADD20R,1.5X1.3*%
%ADD21R,1.3X1.5*%
G04 #@! TA.AperFunction,ComponentPad*
%ADD22C,1.6*%
%ADD23R,1.6X1.6*%
%ADD24R,1.5X1.5*%
%ADD25C,1.5*%
%ADD27R,1.143X0.4191*%
G04 #@! TA.AperFunction,ViaPad*
%ADD29C,1.016*%
%ADD53OUTLINE0*%
%ADD56OUTLINE3*%
%ADD59OUTLINE6*%
%ADD62OUTLINE9*%
%FSLAX35Y35*%
G04*
G71*
G90*
G75*
G01*
G04 Top*
%LPD*%
X176867Y1148487D2*
D13*
X621293D1*
D14*
X586483D1*
Y743480D1*
X1849213Y402420D2*
D15*
X1732433D1*
X1446733Y116720D1*
X783243D1*
X586483Y313480D1*
X2494373Y783420D2*
X2351493D1*
X2113440Y1021473D1*
Y1148487D1*
X2494373Y338920D2*
Y227833D1*
X2573740Y148467D1*
X2731993D1*
X2748347Y164820D1*
D16*
X2891207D1*
X2986447Y260060D1*
X1065773Y259580D2*
D15*
Y264190D1*
X1016483Y313480D1*
X1849213Y338920D2*
X2494373D1*
X2986447Y260060D2*
D16*
X3209153D1*
X3319787Y370693D1*
X1849213Y783420D2*
D15*
Y1138260D1*
X1859440Y1148487D1*
X1016483Y743480D2*
D16*
Y704033D1*
X1351493D1*
X1367367Y688160D1*
Y450060D1*
X1849213Y463380D2*
D15*
X1570687D1*
X1557367Y450060D1*
X1849213Y529420D2*
X1716107D1*
X1557367Y688160D1*
X2494373Y465920D2*
X2970587D1*
X2986447Y450060D1*
X2494373Y656420D2*
X2367393D1*
X2319767Y608793D1*
Y497680D1*
Y450060D1*
X2367407Y402420D1*
X2494373D1*
X2700747D1*
X2748347Y354820D1*
X2319767Y497680D2*
D3*
X2494373Y529420D2*
X2637227D1*
X2732473Y624667D1*
X3319760D1*
X3319787Y624693D1*
X2494373Y719920D2*
X2605500D1*
X2637233Y751653D1*
Y1132693D1*
X2621440Y1148487D1*
X1849213Y719920D2*
X2256260D1*
X2256273Y719907D1*
X1849213Y658960D2*
X1714033D1*
X1700707Y672287D1*
D29*
X954660Y259580D3*
X2256273Y719907D3*
X1065773Y259580D3*
X1700707Y672287D3*
X2319767Y497680D3*
D20*
X2986447Y450060D3*
Y260060D3*
D21*
X1367367Y688160D3*
X1557367D3*
X1367367Y450060D3*
X1557367D3*
D20*
X2748347Y354820D3*
Y164820D3*
D22*
X875293Y1148487D3*
D23*
X621293D3*
D22*
X3319787Y370693D3*
D23*
Y624693D3*
D24*
X176867Y1148487D3*
D25*
Y894487D3*
D24*
X1859440Y1148487D3*
D25*
X2113440D3*
X2367440D3*
X2621440D3*
D27*
X2494373Y592920D3*
Y529420D3*
Y656420D3*
Y719920D3*
Y783420D3*
Y465920D3*
Y402420D3*
Y338920D3*
X1849213Y592920D3*
Y529420D3*
Y658960D3*
Y719920D3*
Y783420D3*
Y463380D3*
Y402420D3*
Y338920D3*
D53*
X1016483Y743480D3*
D56*
Y313480D3*
D59*
X586483D3*
D62*
Y743480D3*
M02*
