G04 DipTrace 3.2.0.1*
G04 TopSilk.gbr*
%MOMM*%
G04 #@! TF.FileFunction,Legend,Top*
G04 #@! TF.Part,Single*
%ADD10C,0.25*%
%ADD19C,0.3*%
%ADD26O,0.39036X0.37016*%
%ADD28C,0.59994*%
%ADD50C,0.07843*%
%ADD51C,0.11765*%
%FSLAX35Y35*%
G04*
G71*
G90*
G75*
G01*
G04 TopSilk*
%LPD*%
X2921497Y555113D2*
D10*
X3051397D1*
X1262313Y623210D2*
Y753110D1*
Y385110D2*
Y515010D1*
X2683397Y459873D2*
X2813297D1*
X570646Y996087D2*
X925941D1*
X570646Y1300887D2*
X925941D1*
Y996087D2*
G03X925941Y1300887I152J152400D01*
G01*
X570646D2*
G03X570646Y996087I-152J-152400D01*
G01*
X3167387Y675341D2*
Y320046D1*
X3472187Y675341D2*
Y320046D1*
X3167387D2*
G03X3472187Y320046I152400J-152D01*
G01*
Y675341D2*
G03X3167387Y675341I-152400J152D01*
G01*
X49867Y767487D2*
X303867D1*
X49867Y1275487D2*
Y767487D1*
Y1275487D2*
X303867D1*
Y767487D1*
X2748440Y1021487D2*
Y1275487D1*
X1732440Y1021487D2*
X2748440D1*
X1732440Y1275487D2*
X2748440D1*
X1732440Y1021487D2*
Y1275487D1*
D26*
X2359304Y339683D3*
D28*
X692418Y651537D3*
X2986447Y291327D2*
D19*
Y450060D1*
X1367367Y688160D2*
X1526100D1*
X1383240Y434187D2*
X1541973D1*
X2748347Y164340D2*
Y323073D1*
X2115703Y319225D2*
D50*
X2166747D1*
Y348369D1*
X2115704Y381070D2*
X2166747D1*
X2115704Y364055D2*
Y398084D1*
X2127833Y450214D2*
X2123003Y447800D1*
X2118118Y442914D1*
X2115704Y438085D1*
Y428371D1*
X2118118Y423485D1*
X2123004Y418656D1*
X2127833Y416185D1*
X2135133Y413771D1*
X2147318D1*
X2154562Y416185D1*
X2159447Y418656D1*
X2164277Y423485D1*
X2166747Y428371D1*
Y438085D1*
X2164276Y442914D1*
X2159447Y447800D1*
X2154562Y450214D1*
X2115760Y470786D2*
Y497459D1*
X2135189Y482915D1*
Y490215D1*
X2137603Y495045D1*
X2140018Y497459D1*
X2147318Y499930D1*
X2152147D1*
X2159447Y497459D1*
X2164333Y492630D1*
X2166747Y485330D1*
Y478030D1*
X2164333Y470786D1*
X2161862Y468371D1*
X2157033Y465901D1*
X2125474Y515616D2*
X2123003Y520502D1*
X2115760Y527802D1*
X2166747D1*
X2115760Y558088D2*
X2118174Y550788D1*
X2125474Y545902D1*
X2137603Y543488D1*
X2144903D1*
X2157033Y545902D1*
X2164333Y550788D1*
X2166747Y558088D1*
Y562917D1*
X2164333Y570217D1*
X2157033Y575046D1*
X2144903Y577517D1*
X2137603D1*
X2125474Y575046D1*
X2118174Y570217D1*
X2115760Y562917D1*
Y558088D1*
X2125474Y575046D2*
X2157033Y545902D1*
X2115760Y605333D2*
X2118174Y598089D1*
X2123003Y595618D1*
X2127889D1*
X2132718Y598089D1*
X2135189Y602918D1*
X2137603Y612633D1*
X2140018Y619933D1*
X2144903Y624762D1*
X2149733Y627176D1*
X2157033D1*
X2161862Y624762D1*
X2164333Y622347D1*
X2166747Y615047D1*
Y605333D1*
X2164333Y598089D1*
X2161862Y595618D1*
X2157033Y593203D1*
X2149733D1*
X2144903Y595618D1*
X2140018Y600503D1*
X2137603Y607747D1*
X2135189Y617462D1*
X2132718Y622347D1*
X2127889Y624762D1*
X2123003D1*
X2118174Y622347D1*
X2115760Y615047D1*
Y605333D1*
X2141253Y642863D2*
Y670940D1*
X2125474Y686626D2*
X2123003Y691511D1*
X2115760Y698811D1*
X2166747D1*
X565016Y569382D2*
D51*
Y492816D1*
X608731D1*
X632261Y529288D2*
X665111D1*
X675977Y532910D1*
X679683Y536616D1*
X683305Y543860D1*
Y554810D1*
X679683Y562054D1*
X675977Y565760D1*
X665111Y569382D1*
X632261D1*
Y492816D1*
X706834Y532910D2*
X739600D1*
X750550Y536616D1*
X754256Y540238D1*
X757878Y547482D1*
Y554810D1*
X754256Y562054D1*
X750550Y565760D1*
X739600Y569382D1*
X706834D1*
Y492816D1*
X732356Y532910D2*
X757878Y492816D1*
X825123Y558432D2*
X821501Y565675D1*
X810551Y569297D1*
X803307D1*
X792357Y565675D1*
X785029Y554725D1*
X781407Y536532D1*
Y518338D1*
X785029Y503766D1*
X792357Y496438D1*
X803307Y492816D1*
X806929D1*
X817795Y496438D1*
X825123Y503766D1*
X828745Y514716D1*
Y518338D1*
X825123Y529288D1*
X817795Y536532D1*
X806929Y540154D1*
X803307D1*
X792357Y536532D1*
X785029Y529288D1*
X781407Y518338D1*
X855981Y551104D2*
Y554725D1*
X859603Y562054D1*
X863224Y565675D1*
X870553Y569297D1*
X885124D1*
X892368Y565675D1*
X895990Y562054D1*
X899696Y554725D1*
Y547482D1*
X895990Y540154D1*
X888746Y529288D1*
X852274Y492816D1*
X903318D1*
X934176Y569297D2*
X974185D1*
X952370Y540154D1*
X963320D1*
X970564Y536532D1*
X974185Y532910D1*
X977892Y521960D1*
Y514716D1*
X974185Y503766D1*
X966942Y496438D1*
X955992Y492816D1*
X945042D1*
X934176Y496438D1*
X930554Y500144D1*
X926848Y507388D1*
X1045137Y569297D2*
X1008749D1*
X1005127Y536532D1*
X1008749Y540154D1*
X1019699Y543860D1*
X1030565D1*
X1041515Y540154D1*
X1048843Y532910D1*
X1052465Y521960D1*
Y514716D1*
X1048843Y503766D1*
X1041515Y496438D1*
X1030565Y492816D1*
X1019699D1*
X1008749Y496438D1*
X1005127Y500144D1*
X1001421Y507388D1*
X359681Y1167051D2*
Y1101435D1*
X326916Y1134201D2*
X392531D1*
X390008Y891215D2*
X397251Y894837D1*
X404580Y902165D1*
X408202Y909409D1*
Y923981D1*
X404580Y931309D1*
X397252Y938553D1*
X390008Y942259D1*
X379058Y945881D1*
X360780D1*
X349914Y942259D1*
X342586Y938553D1*
X335342Y931309D1*
X331636Y923981D1*
Y909409D1*
X335342Y902165D1*
X342586Y894837D1*
X349914Y891215D1*
X360780D1*
Y909409D1*
X408201Y816642D2*
X331636D1*
X408201Y867686D1*
X331636D1*
X408201Y793112D2*
X331636Y793113D1*
Y767591D1*
X335342Y756641D1*
X342586Y749313D1*
X349914Y745691D1*
X360780Y742069D1*
X379058D1*
X390008Y745691D1*
X397251Y749312D1*
X404580Y756641D1*
X408201Y767591D1*
Y793112D1*
X1191121Y1154374D2*
X1187500Y1161618D1*
X1180171Y1168946D1*
X1172928Y1172568D1*
X1158356D1*
X1151028Y1168946D1*
X1143784Y1161618D1*
X1140078Y1154374D1*
X1136456Y1143424D1*
Y1125146D1*
X1140078Y1114281D1*
X1143784Y1106953D1*
X1151028Y1099709D1*
X1158356Y1096003D1*
X1172928D1*
X1180171Y1099709D1*
X1187500Y1106953D1*
X1191121Y1114281D1*
Y1125146D1*
X1172928D1*
X1265695Y1172568D2*
Y1096003D1*
X1214651Y1172568D1*
Y1096003D1*
X1289224Y1172568D2*
Y1096003D1*
X1314746D1*
X1325696Y1099709D1*
X1333024Y1106953D1*
X1336646Y1114281D1*
X1340268Y1125146D1*
Y1143424D1*
X1336646Y1154374D1*
X1333024Y1161618D1*
X1325696Y1168946D1*
X1314746Y1172568D1*
X1289224D1*
X1659874Y1129315D2*
X1667118Y1132937D1*
X1674446Y1140265D1*
X1678068Y1147509D1*
Y1162081D1*
X1674446Y1169409D1*
X1667118Y1176653D1*
X1659874Y1180359D1*
X1648924Y1183981D1*
X1630646D1*
X1619781Y1180359D1*
X1612452Y1176653D1*
X1605209Y1169409D1*
X1601502Y1162081D1*
Y1147509D1*
X1605209Y1140265D1*
X1612452Y1132937D1*
X1619780Y1129315D1*
X1630646D1*
Y1147509D1*
X1678068Y1054742D2*
X1601502D1*
X1678068Y1105786D1*
X1601502D1*
X1678068Y1031212D2*
X1601502Y1031213D1*
Y1005691D1*
X1605209Y994741D1*
X1612452Y987413D1*
X1619781Y983791D1*
X1630646Y980169D1*
X1648924D1*
X1659874Y983791D1*
X1667118Y987412D1*
X1674446Y994741D1*
X1678068Y1005691D1*
Y1031212D1*
X2136074Y938835D2*
X2143318Y942457D1*
X2150646Y949785D1*
X2154268Y957029D1*
Y971601D1*
X2150646Y978929D1*
X2143318Y986173D1*
X2136074Y989879D1*
X2125124Y993501D1*
X2106846D1*
X2095981Y989879D1*
X2088652Y986173D1*
X2081409Y978929D1*
X2077702Y971601D1*
Y957029D1*
X2081409Y949785D1*
X2088652Y942457D1*
X2095980Y938835D1*
X2106846D1*
Y957029D1*
X2154268Y864262D2*
X2077702D1*
X2154268Y915306D1*
X2077702D1*
X2154268Y840732D2*
X2077702Y840733D1*
Y815211D1*
X2081409Y804261D1*
X2088652Y796933D1*
X2095981Y793311D1*
X2106846Y789689D1*
X2125124D1*
X2136074Y793311D1*
X2143318Y796932D1*
X2150646Y804261D1*
X2154268Y815211D1*
Y840732D1*
X2637994Y993501D2*
Y960651D1*
X2641616Y949785D1*
X2645322Y946079D1*
X2652566Y942457D1*
X2663516D1*
X2670760Y946079D1*
X2674466Y949785D1*
X2678088Y960651D1*
Y993501D1*
X2601523D1*
X2659894Y864262D2*
X2667138Y867884D1*
X2674466Y875212D1*
X2678088Y882456D1*
Y897028D1*
X2674466Y904356D1*
X2667138Y911599D1*
X2659894Y915306D1*
X2648944Y918928D1*
X2630666D1*
X2619800Y915306D1*
X2612472Y911600D1*
X2605229Y904356D1*
X2601522Y897028D1*
Y882456D1*
X2605229Y875212D1*
X2612472Y867884D1*
X2619800Y864262D1*
X2630666D1*
Y882456D1*
X2678088Y840732D2*
X2601522Y840733D1*
Y815211D1*
X2605229Y804261D1*
X2612472Y796933D1*
X2619801Y793311D1*
X2630666Y789689D1*
X2648944D1*
X2659894Y793311D1*
X2667138Y796932D1*
X2674466Y804261D1*
X2678088Y815211D1*
Y840732D1*
X2376495Y993501D2*
X2299929Y964357D1*
X2376495Y935213D1*
X2350973Y893490D2*
X2347351Y900734D1*
X2340023Y908062D1*
X2329073Y911684D1*
X2321829D1*
X2310879Y908062D1*
X2303635Y900734D1*
X2299929Y893490D1*
Y882540D1*
X2303635Y875212D1*
X2310879Y867968D1*
X2321829Y864262D1*
X2329073D1*
X2340023Y867968D1*
X2347351Y875212D1*
X2350973Y882540D1*
Y893490D1*
Y840732D2*
X2314501Y840733D1*
X2303635Y837111D1*
X2299929Y829783D1*
Y818833D1*
X2303635Y811589D1*
X2314501Y800639D1*
X2350973D2*
X2299929D1*
X2376495Y766159D2*
X2314501D1*
X2303635Y762537D1*
X2299929Y755209D1*
Y747965D1*
X2350973Y777109D2*
Y751587D1*
X3270528Y106734D2*
X3266906Y113978D1*
X3259578Y121306D1*
X3252334Y124928D1*
X3237762D1*
X3230434Y121306D1*
X3223190Y113978D1*
X3219484Y106734D1*
X3215862Y95784D1*
Y77506D1*
X3219484Y66641D1*
X3223190Y59313D1*
X3230434Y52069D1*
X3237762Y48363D1*
X3252334D1*
X3259578Y52069D1*
X3266906Y59313D1*
X3270528Y66641D1*
Y77506D1*
X3252334D1*
X3345101Y124928D2*
Y48363D1*
X3294058Y124928D1*
Y48363D1*
X3368631Y124928D2*
Y48363D1*
X3394153D1*
X3405103Y52069D1*
X3412431Y59313D1*
X3416053Y66641D1*
X3419675Y77506D1*
Y95784D1*
X3416053Y106734D1*
X3412431Y113978D1*
X3405103Y121306D1*
X3394153Y124928D1*
X3368631D1*
X3179129Y977102D2*
X3208273Y900536D1*
X3237417Y977102D1*
X3279140Y951580D2*
X3271896Y947958D1*
X3264568Y940630D1*
X3260946Y929680D1*
Y922436D1*
X3264568Y911486D1*
X3271896Y904242D1*
X3279140Y900536D1*
X3290090D1*
X3297418Y904242D1*
X3304662Y911486D1*
X3308368Y922436D1*
Y929680D1*
X3304662Y940630D1*
X3297418Y947958D1*
X3290090Y951580D1*
X3279140D1*
X3331897D2*
Y915108D1*
X3335519Y904242D1*
X3342847Y900536D1*
X3353797D1*
X3361041Y904242D1*
X3371991Y915108D1*
Y951580D2*
Y900536D1*
X3406471Y977102D2*
Y915108D1*
X3410093Y904242D1*
X3417421Y900536D1*
X3424665D1*
X3395521Y951580D2*
X3421043D1*
X1390429Y872192D2*
X1397757Y875898D1*
X1408707Y886764D1*
Y810283D1*
X1432237Y861326D2*
Y810283D1*
Y846754D2*
X1443187Y857704D1*
X1450515Y861326D1*
X1461380D1*
X1468708Y857704D1*
X1472330Y846754D1*
Y810283D1*
X1543282Y886848D2*
X1495860D1*
Y810283D1*
Y850376D2*
X1525004D1*
X1318390Y299451D2*
X1358400D1*
X1336584Y270307D1*
X1347534D1*
X1354778Y266685D1*
X1358400Y263063D1*
X1362106Y252113D1*
Y244869D1*
X1358400Y233919D1*
X1351156Y226591D1*
X1340206Y222969D1*
X1329256D1*
X1318390Y226591D1*
X1314769Y230297D1*
X1311062Y237541D1*
X1392964Y299451D2*
X1432973D1*
X1411158Y270307D1*
X1422108D1*
X1429351Y266685D1*
X1432973Y263063D1*
X1436679Y252113D1*
Y244869D1*
X1432973Y233919D1*
X1425729Y226591D1*
X1414779Y222969D1*
X1403829D1*
X1392964Y226591D1*
X1389342Y230297D1*
X1385636Y237541D1*
X1482109Y299451D2*
X1471159Y295829D1*
X1463831Y284879D1*
X1460209Y266685D1*
Y255735D1*
X1463831Y237541D1*
X1471159Y226591D1*
X1482109Y222969D1*
X1489353D1*
X1500303Y226591D1*
X1507547Y237541D1*
X1511253Y255735D1*
Y266685D1*
X1507547Y284879D1*
X1500303Y295829D1*
X1489353Y299451D1*
X1482109D1*
X1507547Y284879D2*
X1463831Y237541D1*
X1534782Y274013D2*
Y197447D1*
Y263063D2*
X1542110Y270307D1*
X1549354Y274013D1*
X1560304D1*
X1567632Y270307D1*
X1574876Y263063D1*
X1578582Y252113D1*
Y244785D1*
X1574876Y233919D1*
X1567632Y226591D1*
X1560304Y222969D1*
X1549354D1*
X1542110Y226591D1*
X1534782Y233919D1*
X1649533Y299535D2*
X1602112D1*
Y222969D1*
Y263063D2*
X1631255D1*
X2579088Y150919D2*
X2575382Y158247D1*
X2564516Y169197D1*
X2640998D1*
X2589954Y192727D2*
X2626426D1*
X2637291Y196349D1*
X2640998Y203677D1*
Y214627D1*
X2637291Y221870D1*
X2626426Y232820D1*
X2589954Y232821D2*
X2640998Y232820D1*
X2564432Y303772D2*
Y256350D1*
X2640998D1*
X2600904D2*
Y285494D1*
X2960048Y627119D2*
X2956342Y634447D1*
X2945476Y645397D1*
X3021958D1*
X2970914Y668927D2*
X3007386D1*
X3018251Y672549D1*
X3021958Y679877D1*
Y690827D1*
X3018251Y698070D1*
X3007386Y709020D1*
X2970914Y709021D2*
X3021958Y709020D1*
X2945392Y779972D2*
Y732550D1*
X3021958D1*
X2981864D2*
Y761694D1*
M02*
